<?xml version="1.0" encoding="utf-8"?>
<!-- Generator: Adobe Illustrator 16.0.0, SVG Export Plug-In . SVG Version: 6.00 Build 0)  -->
<!DOCTYPE svg PUBLIC "-//W3C//DTD SVG 1.1//EN" "http://www.w3.org/Graphics/SVG/1.1/DTD/svg11.dtd">
<svg version="1.1" id="Layer_1" xmlns="http://www.w3.org/2000/svg" xmlns:xlink="http://www.w3.org/1999/xlink" x="0px" y="0px"
	 width="1000px" height="1000px" viewBox="0 0 1000 1000" enable-background="new 0 0 1000 1000" xml:space="preserve">
<path fill="#FFFFFF" d="M997.449,542.657c-23.978,329.217-128.073,504.127-564.947,446.469
	C117.01,947.485-26.925,737.663,4.138,426.977C35.06,117.694,179.87-43.779,559.74,10.321
	C874.835,55.196,1021.547,211.797,997.449,542.657z"/>
<g>
	<g>
		<path fill-rule="evenodd" clip-rule="evenodd" fill="#003399" d="M709.197,100.328c-6.793,1.427-9.375,2.311-15.625,5.502
			c-12.569,6.456-22.08,16.918-27.448,30.303c-2.718,6.862-3.874,13.521-3.737,21.876c0.135,9.513,1.971,16.917,6.318,25.751
			c2.854,5.774,4.349,7.677,10.259,13.724l6.863,6.998l-10.124,8.695c-5.57,4.757-11.549,9.919-13.316,11.414
			c-8.833,7.338-23.031,19.703-24.391,21.335c-6.251,7.065-15.354,19.906-22.147,31.319c-2.106,3.533-5.504,9.037-7.543,12.229
			c-6.385,9.988-6.656,10.669-6.249,14.948c0.203,2.786,1.289,5.774,3.668,10.598c3.668,7.476,4.553,8.018,9.104,6.116
			c6.182-2.582,21.674-16.646,35.328-32.136c4.145-4.622,17.394-19.229,23.508-25.953c2.923-3.125,2.923-3.125,2.582-1.088
			c-0.136,1.088-1.019,6.794-1.971,12.568c-2.241,13.997-2.105,12.977-5.503,36.688c-1.631,11.414-3.124,21.604-3.33,22.761
			c-2.037,12.229-5.163,31.863-5.503,34.31c-0.203,1.699-0.68,5.164-1.019,7.813c-0.68,4.688-2.241,20.043-3.058,29.214
			c-0.203,2.582-0.542,5.503-0.68,6.456c-0.135,0.95-0.476,4.009-0.68,6.793c-0.203,2.785-0.542,5.843-0.679,6.794
			c-0.136,0.95-0.476,4.009-0.681,6.795c-0.271,2.785-1.153,12.092-2.104,20.722c-0.885,8.56-1.837,17.324-2.039,19.362
			c-0.204,2.038-0.544,4.349-0.747,5.028c-0.34,1.087-0.068,1.222,1.562,0.95c1.087-0.203,8.084-1.223,15.558-2.242
			c7.475-1.087,13.793-2.105,14.065-2.31c0.202-0.203,0.609-2.446,0.814-4.96c0.339-4.077,2.65-27.379,3.465-35.193
			c0.203-1.699,0.815-7.948,1.36-13.928c0.609-5.979,1.152-11.48,1.222-12.297c0.137-0.815,3.667-5.162,7.881-9.647
			c8.832-9.442,6.93-8.629,22.828-9.308c5.232-0.205,12.705-0.544,16.646-0.747l7.132-0.409l1.971,3.33
			c1.087,1.767,3.873,6.59,6.251,10.735l4.281,7.473l0.339,8.831c0.203,4.824,0.543,18.48,0.815,30.234
			c0.271,11.755,0.476,22.285,0.543,23.439l0.137,2.039l8.763,1.155c4.894,0.611,10.192,1.29,11.891,1.495
			c6.999,0.882,9.376,1.223,13.248,1.833c2.243,0.341,4.484,0.612,4.962,0.612c1.018,0,1.018,0.135-0.886-16.986
			c-0.543-4.688-1.087-10.462-1.358-12.909c-0.202-2.444-0.544-5.502-0.681-6.793c-0.134-1.29-0.475-4.348-0.678-6.794
			c-0.272-2.446-0.814-8.222-1.359-12.908c-0.543-4.688-1.154-10.667-1.427-13.249c-0.204-2.649-0.95-9.512-1.63-15.286
			c-0.815-7.609-1.224-16.85-1.292-33.292c-0.203-33.019-0.95-38.182-12.772-86.624c-2.106-8.629-4.62-18.888-5.639-22.965
			c-1.02-4.008-1.699-7.269-1.562-7.269c0.204,0,3.601,2.581,7.609,5.774c33.495,26.837,38.59,30.776,41.104,31.592
			c1.427,0.477,4.214,1.631,6.115,2.65c4.552,2.445,8.764,4.076,13.181,5.232c4.756,1.29,6.658,1.222,7.27-0.272
			c5.978-14.675,5.027-21.13-5.028-33.358c-7.744-9.443-14.538-16.646-18.751-19.703c-1.834-1.428-7.676-4.756-12.909-7.541
			c-5.229-2.719-9.783-5.163-10.191-5.436c-0.339-0.271-4.957-2.719-10.189-5.435c-5.232-2.718-9.785-5.165-10.191-5.437
			c-0.341-0.271-4.011-2.241-8.154-4.416c-4.076-2.174-7.607-4.009-7.744-4.213c-0.205-0.135,1.495-2.173,3.737-4.484
			c5.774-5.91,8.085-9.17,11.141-15.286c3.738-7.542,5.437-14.198,5.911-22.76c1.224-23.372-11.277-44.434-32.882-55.439
			c-1.563-0.747-5.505-2.174-8.833-3.193C728.562,99.375,716.195,98.833,709.197,100.328 M730.056,254.826
			c3.33,6.997,6.93,17.8,9.443,28.125c2.107,8.902,1.563,6.387,5.3,24.528c3.533,17.325,6.727,30.165,8.357,33.833
			c0.679,1.564,0.882,2.787,0.476,3.194c-0.339,0.271-5.776,0.747-12.16,1.02c-6.32,0.272-12.23,0.543-13.045,0.679
			c-2.923,0.477-25.14,1.292-30.303,1.155c-2.99-0.066-5.911-0.476-6.659-0.814c-1.697-0.951-2.241-3.466-1.359-6.252
			c0.41-1.224,1.633-7.608,2.718-14.199c1.156-6.591,3.875-19.092,6.116-27.856c7.2-27.854,9.512-36.891,10.666-40.832l1.155-3.872
			l7.204-0.203C729.648,252.991,729.172,252.921,730.056,254.826"/>
		<path fill-rule="evenodd" clip-rule="evenodd" fill="#FF3366" d="M340.997,263.136c-1.856,0.224-6.533,0.669-10.395,0.965
			c-9.204,0.669-12.916,1.188-13.213,1.931c-0.148,0.371-1.931,2.821-3.936,5.567c-2.078,2.672-4.677,6.83-5.864,9.132
			c-1.93,4.007-5.643,14.773-6.385,18.634c-0.223,0.89-0.892,3.934-1.484,6.682c-0.668,2.671-1.336,5.641-1.484,6.532
			c-0.148,0.89-1.485,6.903-2.969,13.361c-1.485,6.46-2.748,12.25-2.895,12.844c-0.446,2.005-1.04,4.678-2.674,11.508
			c-0.815,3.636-1.708,7.498-1.857,8.463c-0.222,0.89-0.89,3.934-1.483,6.681c-0.669,2.673-1.337,5.716-1.484,6.682
			c-0.224,0.891-0.892,3.935-1.485,6.681c-0.668,2.674-1.262,5.421-1.412,6.014c-0.37,1.633-0.889,4.008-2.671,11.507
			c-0.817,3.638-1.707,7.349-1.856,8.167c-1.855,9.649-3.34,14.847-4.528,15.515c-0.741,0.446-4.23,2.449-7.795,4.38
			c-5.865,3.268-6.532,3.414-7.127,2.228c-0.669-1.264-4.899-17.596-5.567-21.751c-0.222-1.04-0.89-4.679-1.559-8.167
			c-1.56-8.464-1.782-10.021-2.375-14.03c-0.223-1.856-0.596-4.231-0.743-5.27c-0.445-2.674-3.861-33.557-4.38-39.719
			c-0.222-2.895-0.596-6.236-0.742-7.423c-0.223-1.264-0.521-4.752-0.743-7.797c-0.221-3.043-0.519-6.605-0.742-7.794
			c-0.147-1.261-0.52-4.899-0.741-8.167c-0.521-7.125-1.115-9.428-4.528-18.336c-2.377-6.311-3.639-9.278-7.943-18.261
			c-1.635-3.564-1.039-3.416-9.801-2.005c-6.234,0.965-24.275,3.341-25.759,3.341c-1.114,0-1.114,0.37-0.223,3.711
			c0.519,2.078,0.965,3.936,1.038,4.083c0,0.371,0.52,3.191,1.188,7.052c0.149,0.595,0.817,3.415,1.484,6.311
			c0.669,2.822,2.228,10.022,3.416,15.962c1.262,5.939,2.375,11.283,2.524,11.878c0.223,0.89,3.637,16.703,4.379,20.415
			c0.074,0.371,0.372,1.706,0.669,2.969c0.296,1.188,0.595,3.044,0.816,4.083c0.147,1.039,0.816,4.011,1.484,6.682
			c1.114,4.677,4.009,17.892,4.678,21.455c0.149,1.039,0.444,2.078,0.593,2.302c0.224,0.444,2.674,10.912,3.712,16.258
			c0.148,0.667,1.04,4.675,2.079,8.981c1.04,4.307,2.079,8.612,2.228,9.651c0.224,1.039,0.742,3.191,1.187,4.825
			c0.595,2.3,8.315,32.961,9.28,37.118c0.075,0.371,0.965,3.64,1.856,7.201l1.782,6.459l3.043-0.297
			c1.706-0.223,4.528-0.52,6.385-0.669c1.855-0.222,7.201-0.89,11.878-1.484c4.676-0.593,10.393-1.261,12.619-1.483
			c2.229-0.299,4.899-0.595,5.94-0.743c1.038-0.223,4.009-0.52,6.607-0.743c8.165-0.741,7.646-0.222,10.021-9.947
			c1.188-4.751,3.119-12.027,4.307-16.109c1.187-4.082,2.301-7.943,2.449-8.537c0.668-2.82,4.158-14.923,5.568-19.302
			c0.892-2.672,1.707-5.345,1.854-5.939c0.521-2.375,8.762-28.654,13.735-43.799c2.969-8.761,5.419-16.555,5.567-17.298
			c0.148-0.667,0.52-1.633,0.742-2.004c0.224-0.372,0.595-1.411,0.742-2.229c0.148-0.814,3.861-12.248,8.167-25.388
			c4.38-13.215,8.092-24.795,8.239-25.835c0.223-0.965,0.744-2.227,1.188-2.746c0.445-0.52,0.595-0.966,0.372-0.966
			s1.039-4.38,2.894-9.799c1.784-5.419,3.268-10.096,3.268-10.395C352.132,262.246,346.64,262.32,340.997,263.136"/>
		<path fill-rule="evenodd" clip-rule="evenodd" fill="#99CC33" d="M254.823,501.463c-0.282,0.374-2.814,0.75-5.44,0.937
			c-2.626,0.095-5.251,0.75-5.813,1.312c-0.751,0.844-0.751,0.939,0,0.563c0.562-0.282,1.031,0,1.031,0.658
			c0,0.655-0.563,1.217-1.22,1.217c-0.657,0-1.125-0.469-1.03-1.032c0.28-1.592-3.377-0.562-5.721,1.595
			c-2.157,1.972-4.502,6.284-5.063,9.098c-0.188,0.752-0.657,1.687-1.126,2.062c-0.47,0.279-0.938,1.594-1.032,2.813
			c-0.094,1.126-0.469,2.907-0.845,3.751c-0.375,0.844-0.844,2.063-0.938,2.812c-0.188,0.658-0.562,1.876-0.938,2.628
			c-0.281,0.751-0.655,2.904-0.843,4.688c-0.188,1.782-0.657,3.845-1.031,4.596c-0.47,0.75-0.938,3.281-0.938,5.626
			c-0.094,2.345-0.469,4.876-0.938,5.532c-0.751,1.312-0.563,22.601,0.281,24.101c0.281,0.469,0.562,4.596,0.656,9.097
			c0.187,12.849,0.281,13.129,1.595,12.379c0.843-0.563,0.843-0.471,0,0.75c-0.656,0.751-0.938,1.688-0.564,2.063
			c0.376,0.375,0.751,2.346,0.845,4.312c0.095,2.062,0.656,4.313,1.22,4.972c0.562,0.75,0.749,1.593,0.374,1.875
			c-0.28,0.375,0.094,0.656,0.938,0.656s1.501,0.469,1.313,1.125c-0.094,0.562,0.749,1.595,1.876,2.156
			c1.219,0.657,2.906,1.782,3.938,2.72c0.938,0.844,2.626,1.689,3.657,1.783c1.031,0,1.876,0.373,1.782,0.749
			s0.281,0.656,0.75,0.656c0.562,0,0.845-0.28,0.751-0.656c-0.095-0.376,0.373-0.749,1.03-0.749c0.656,0,1.22,0.562,1.22,1.217
			c0,0.657-0.376,1.033-0.844,0.752c-0.376-0.282-0.751-0.095-0.751,0.376c0,0.468,2.532,2.062,5.533,3.655
			c4.127,2.158,5.813,2.627,6.657,1.783c0.844-0.751,1.032-0.656,0.752,0.281c-0.283,1.219,8.157,6.469,11.348,6.938
			c0.842,0.188,3.843,1.406,6.845,2.907c2.907,1.406,5.813,2.627,6.563,2.813c0.657,0.094,2.531,0.845,4.221,1.689
			c2.156,1.124,3.188,1.217,4.126,0.373c0.843-0.751,0.937-0.751,0.562,0c-0.938,1.595,1.688,3.376,4.876,3.563
			c1.502,0,2.72,0.47,2.626,0.939c-0.093,0.562,0.283,0.938,0.75,1.03c0.563,0,2.439,0.751,4.221,1.595
			c1.782,0.938,3.938,1.687,4.689,1.875c0.75,0.188,1.97,0.845,2.625,1.501c0.75,0.657,1.594,0.938,2.063,0.657
			c0.469-0.283,0.937,0,1.125,0.468c0.188,0.562,1.031,1.126,1.876,1.218c0.844,0.188,2.157,0.844,3,1.502
			c0.846,0.655,1.5,0.937,1.5,0.655c0-0.374,0.938,0.188,2.064,1.313c1.782,1.595,3.376,2.25,5.439,2.063
			c0.28,0,0.656,0.844,0.656,1.875c0.094,1.126,0.656,2.439,1.312,3.001c0.75,0.75,0.938,0.75,0.562,0
			c-0.282-0.562,0-1.03,0.657-1.03c0.655,0,1.219,0.562,1.219,1.218s-0.47,1.127-1.031,1.032c-0.47-0.094-0.938,1.03-0.938,2.626
			c0,1.499,0.469,2.72,0.938,2.625c0.562-0.094,1.031,0.375,1.031,1.126c0,0.749-0.376,1.125-0.845,0.844
			c-0.938-0.562-1.031,1.876-0.094,2.813c0.375,0.279,0.845,4.501,1.032,9.283c0.094,4.781,0.75,9.003,1.312,9.565
			c0.656,0.656,0.844,0.563,0.469-0.095c-0.282-0.562,0-1.031,0.657-1.031c0.656,0,1.218,0.563,1.218,1.22s-0.468,1.125-1.031,1.031
			c-0.469-0.095-0.938,1.5-1.031,3.562c0,2.064-0.281,4.222-0.656,4.785c-0.375,0.562-0.844,2.438-0.938,4.125
			c-0.188,1.969-1.125,3.75-2.813,5.158c-2.438,2.062-3.657,4.033-1.876,2.907c0.469-0.281,0.845,0.093,0.845,0.748
			c0,0.657-0.563,1.221-1.22,1.221s-1.032-0.374-0.75-0.843c0.282-0.378-0.188-0.752-0.938-0.752s-1.688,0.374-1.971,0.938
			c-0.279,0.47-1.404,0.938-2.438,0.938c-0.937,0-1.782,0.47-1.782,1.032c0,0.467,0.377,0.75,0.75,0.467
			c0.471-0.281,0.845,0.096,0.845,0.752s-0.562,1.219-1.218,1.219c-0.657,0-1.127-0.282-1.032-0.562
			c0.093-0.283-0.188-0.562-0.75-0.562c-0.47,0-0.845,0.279-0.75,0.562c0.094,0.28-0.377,0.562-1.127,0.562
			c-0.749,0-1.125-0.375-0.843-0.846c0.562-0.937-1.875-1.029-2.814-0.094c-0.75,0.753-1.219,0.844-3.938,1.126
			c-0.844,0.096-1.126,0.562-0.75,1.221c0.562,0.937,0.375,0.937-0.75,0c-0.846-0.658-1.782-0.846-1.97-0.47
			c-0.282,0.47-1.875,0.938-3.563,1.032c-1.594,0.093-3.469,0.563-4.033,0.843c-0.562,0.376-3.188,0.75-5.813,0.938
			c-4.689,0.283-9.284,0.845-9.284,1.22c0,0.563-22.225,0.47-22.506,0c-0.188-0.375-2.626-0.75-5.347-0.845
			c-8.814-0.562-10.596-0.749-12.002-1.312c-0.75-0.375-2.438-0.75-3.751-0.937c-1.312-0.188-3.001-0.656-3.751-0.938
			c-0.751-0.376-2.625-0.751-4.221-1.033c-1.5-0.187-2.812-0.467-2.812-0.562c0-0.094-0.938-0.282-2.063-0.562
			c-2.157-0.376-2.813,0.562-1.407,1.875c0.376,0.374,0.751,3.657,0.751,7.222c0.281,14.629,0.375,15.004,1.595,14.349
			c0.843-0.564,0.843-0.378-0.095,0.746c-0.656,0.848-0.844,1.784-0.376,2.065c0.471,0.281,0.751,1.781,0.657,3.375
			c-0.187,1.877,0.188,2.813,1.031,2.908c0.75,0.094,2.439,0.188,3.938,0.282c1.408,0.094,3.002,0.374,3.471,0.656
			c0.938,0.562,5.626,0.844,18.287,1.312c3.376,0.188,6.188,0.375,6.376,0.47c0.75,0.749,6.472,0.468,7.597-0.376
			c1.03-0.749,1.219-0.749,0.655,0.094c-0.469,0.94,0.283,1.22,2.72,1.22c1.877,0,3.188-0.375,2.907-0.75
			c-0.281-0.47,0.095-0.844,0.843-0.844c0.75,0,1.126,0.374,0.845,0.844c-0.279,0.375,1.031,0.75,2.907,0.75s3.188-0.375,2.908-0.75
			c-0.282-0.47,0.093-0.844,0.843-0.844c0.751,0,1.126,0.374,0.845,0.844c-0.281,0.375,1.032,0.75,2.905,0.75
			c1.877,0,3.189-0.375,2.908-0.75c-0.281-0.47,0.094-0.844,0.844-0.844c0.751,0,1.125,0.374,0.845,0.844
			c-0.281,0.375,1.031,0.75,2.906,0.75c1.877,0,3.188-0.375,2.907-0.75c-0.28-0.47,0.095-0.844,0.845-0.844
			c0.749,0,1.124,0.374,0.844,0.844c-0.281,0.375,0.188,0.75,1.03,0.75c0.938,0,1.221-0.47,0.845-1.22
			c-0.562-0.843-0.374-0.843,0.656-0.094c1.126,0.844,5.064,1.125,5.814,0.376c0.095-0.095,2.532-0.282,5.346-0.47
			c10.127-0.376,14.535-0.75,15.474-1.312c0.562-0.282,1.688-0.562,2.626-0.656c0.843-0.095,2.25-0.188,3.094-0.282
			c0.749,0,1.219-0.469,0.938-0.844c-0.281-0.469,0.094-0.845,0.844-0.845c0.751,0,1.125,0.376,0.845,0.845
			c-0.563,0.938,1.875,1.031,2.812,0.093c0.282-0.374,2.157-0.749,4.127-0.938c1.876-0.093,4.125-0.562,4.876-0.938
			c0.75-0.282,2.721-0.75,4.22-0.938c2.626-0.373,9.378-5.719,8.44-6.658c-0.188-0.187,0.28-1.029,1.031-1.781
			c0.75-0.75,1.126-1.781,0.75-2.25c-0.28-0.47,0-0.75,0.75-0.657c0.751,0.188,1.22-0.562,1.125-1.781
			c-0.094-1.219,0.188-1.876,0.562-1.688c1.221,0.75,3.002-2.157,3.189-5.062c0-1.503,0.468-2.721,0.938-2.627
			c0.562,0.094,0.937-0.656,0.937-1.688c0-1.029,0.47-2.155,0.938-2.532c0.47-0.281,0.938-1.593,1.032-2.812
			c0.095-1.125,0.469-2.907,0.844-3.751s0.844-2.062,0.938-2.813c0.188-0.656,0.751-2.25,1.22-3.562
			c0.562-1.313,0.844-3.001,0.75-3.751c-0.094-0.751,0.188-1.688,0.655-1.969c0.376-0.281,0.939-1.971,1.126-3.753
			c0.188-1.782,0.563-3.843,0.938-4.594c0.28-0.751,0.75-3.001,0.844-4.877c0.188-1.97,0.563-3.845,0.938-4.127
			c0.938-0.937,0.844-3.376-0.094-2.813c-0.468,0.281-0.844-0.093-0.844-0.844s0.376-1.125,0.844-0.843
			c0.751,0.469,0.938-0.094,1.125-6.002c0.094-1.874,0.375-3.939,0.657-4.407c1.218-1.877,1.031-18.099-0.188-18.85
			c-0.657-0.375-0.938-0.282-0.562,0.28c0.28,0.471,0,0.938-0.657,0.938c-0.655,0-1.219-0.562-1.219-1.219
			c0-0.656,0.469-1.126,0.938-1.031c1.406,0.281,1.501-2.72,0.188-5.253c-0.656-1.312-1.031-2.529-0.844-2.718
			c0.751-0.845-11.628-12.099-13.505-12.284c-1.03,0-1.875-0.376-1.781-0.658s-0.094-0.562-0.562-0.655
			c-0.375-0.188-1.593-1.125-2.72-2.157c-1.594-1.406-2.25-1.595-3.281-0.75c-1.032,0.843-1.22,0.75-1.032-0.188
			c0.47-1.781-5.062-4.688-6.563-3.471c-0.938,0.751-1.126,0.657-0.938-0.28c0.469-1.876-5.064-4.689-6.658-3.376
			c-1.03,0.751-1.219,0.751-0.75,0c0.75-1.313-1.125-3.002-3.657-3.47c-0.938-0.095-4.126-1.407-7.128-2.906
			c-2.906-1.408-5.812-2.72-6.563-2.814c-0.656-0.094-3.094-1.126-5.439-2.157c-3.938-1.876-6.188-2.062-5.251-0.374
			c0.281,0.374-0.094,0.749-0.751,0.749c-0.655,0-1.219-0.562-1.219-1.219c0-0.655,0.376-1.032,0.845-0.751
			c0.374,0.282,0.75,0,0.75-0.467c0-0.562-0.656-1.032-1.407-1.032c-0.749,0-2.906-0.844-4.688-1.875
			c-1.875-1.033-4.221-2.064-5.157-2.159c-1.031-0.186-2.157-0.562-2.438-0.937c-0.375-0.375-1.313-0.094-2.064,0.563
			c-0.938,0.655-1.22,0.75-0.843,0.093c0.938-1.593-1.689-3.377-4.878-3.562c-1.5,0-2.719-0.377-2.625-0.657
			c0.095-0.375-0.188-0.656-0.75-0.656c-0.469,0-0.845,0.281-0.75,0.656c0.093,0.375-0.375,0.751-1.032,0.751
			c-0.655,0-1.219-0.563-1.219-1.219c0-0.657,0.47-0.938,1.031-0.657c0.751,0.375,0.751,0.188,0-0.563
			c-0.562-0.655-1.875-1.217-3-1.312c-1.032,0-1.876-0.562-1.782-1.126c0.094-0.467-0.75-0.844-1.876-0.844
			c-1.126,0.094-1.97-0.373-1.875-0.937c0.094-0.562-0.751-0.939-1.877-0.939c-1.218,0.094-1.968-0.187-1.687-0.562
			c0.562-0.937-2.813-3.938-3.563-3.094c-0.375,0.282-0.657,0.093-0.657-0.47c0-0.656-0.469-1.125-1.029-1.125
			c-0.471,0-0.752,0.376-0.471,0.75c0.282,0.471-0.094,0.845-0.75,0.845c-0.657,0-1.219-0.562-1.219-1.219s0.376-1.032,0.844-0.751
			c0.376,0.281,0.75-0.188,0.75-1.031c0-0.846-0.375-1.312-0.75-1.031c-0.468,0.282-0.844-0.094-0.844-0.844
			s0.468-1.221,1.031-1.126c0.47,0.095,1.031-1.22,1.125-2.907c0.095-1.594,0.188-3.094,0.375-3.281
			c0.376-0.469,0.938-4.22,1.22-8.348c0.188-2.438,0.562-4.781,0.938-5.063c0.375-0.375,0.094-1.312-0.562-2.062
			c-0.845-1.219-0.845-1.313,0.095-0.749c0.748,0.469,1.124-0.095,1.218-1.688c0.375-7.129,0.188-9.475-0.656-9.286
			c-0.562,0.095-1.031-0.374-1.031-1.03s0.562-1.22,1.218-1.22c0.657,0,0.938,0.469,0.657,1.031
			c-0.375,0.752-0.188,0.752,0.469,0.095c0.564-0.562,1.219-2.813,1.407-5.158c0.281-3.563,0.749-4.407,3.282-5.814
			c1.688-0.938,3.376-1.688,3.751-1.595c0.562,0,1.97-0.375,5.157-1.501c0.376-0.093,1.313-0.279,2.157-0.373
			c0.751,0,1.219-0.471,0.938-0.845c-0.281-0.469,0.094-0.844,0.844-0.844c0.751,0,1.127,0.375,0.846,0.844
			c-0.282,0.374,0.187,0.75,1.03,0.75c0.938,0,1.22-0.468,0.844-1.219c-0.562-0.845-0.376-0.845,0.752,0.096
			c0.938,0.747,1.686,0.842,2.062,0.28c0.468-0.657,12.473-0.939,34.134-0.846c18.473,0.095,34.041-0.186,34.698-0.563
			c0.938-0.562,0.938-1.029,0.092-2.062c-0.937-1.125-0.937-1.405,0.094-1.125c0.752,0.188,1.408-0.562,1.408-1.594
			c0.094-1.032,0.562-2.907,1.124-4.221c0.562-1.313,0.846-3.002,0.751-3.749c-0.094-0.751,0.095-1.596,0.469-1.878
			c1.219-0.75,1.501-5.158,0.376-4.97c-0.563,0.094-1.033-0.376-1.033-1.032s0.562-1.219,1.22-1.219
			c0.656,0,0.938,0.469,0.656,1.033c-0.28,0.562,0,0.468,0.657-0.096c1.875-1.688,0.938-2.064-4.971-2.438
			c-2.907-0.187-5.627-0.562-5.908-0.938c-0.374-0.374-1.312-0.094-2.063,0.565c-1.218,0.844-1.312,0.844-0.749-0.096
			c0.468-0.844-0.282-1.126-2.721-1.126c-1.875,0-3.188,0.378-2.906,0.751c0.281,0.471-0.094,0.844-0.844,0.844
			c-0.751,0-1.126-0.373-0.844-0.844c0.469-0.751,0.281-0.844-6.19-1.217c-2.062-0.097-3.845-0.283-3.938-0.47
			c-0.563-0.376-8.441-0.939-19.036-1.314c-6.19-0.186-11.348-0.469-11.441-0.562c-0.844-0.749-4.689-0.375-5.814,0.377
			c-1.031,0.748-1.22,0.748-0.656-0.188c0.562-0.844-4.032-1.127-21.475-1.127s-22.037,0.283-21.475,1.127
			c0.562,0.937,0.469,0.937-0.75,0.093C256.135,501.369,255.196,501.088,254.823,501.463"/>
		<path fill-rule="evenodd" clip-rule="evenodd" fill="#FF3366" d="M414.417,264.843c-0.147,0.149-3.637,0.521-7.721,0.741
			c-4.083,0.298-8.093,0.669-8.907,0.818c-0.817,0.148-4.9,0.52-9.058,0.742c-4.157,0.224-8.167,0.594-8.982,0.742
			c-0.816,0.147-3.416,0.371-5.792,0.445c-2.449,0.075-4.824,0.297-5.344,0.521c-1.039,0.37-1.039,4.528,0.223,33.555
			c0.222,4.678,0.52,14.552,0.743,21.9c0.296,7.349,0.594,13.882,0.741,14.476c0.148,0.594,0.445,7.201,0.743,14.625
			c0.222,7.424,0.593,14.254,0.741,15.219c0.149,0.965,0.446,7.053,0.668,13.584c0.297,6.534,0.596,13.884,0.816,16.333
			c0.224,2.449,0.521,8.761,0.744,14.105c0.223,5.271,0.519,12.175,0.741,15.22c0.223,3.043,0.52,9.204,0.743,13.731
			c0.222,4.455,0.593,11.879,0.815,16.334l0.444,8.239l2.377-0.147c1.264-0.074,4.752-0.372,7.869-0.595
			c3.044-0.223,8.612-0.668,12.249-0.89c3.712-0.222,6.757-0.521,6.757-0.594c0.073,0,0.371-11.954,0.594-26.355
			c0.296-14.477,0.666-26.575,0.816-26.8c0.147-0.222,0.445-6.904,0.742-14.848c0.297-7.941,0.668-14.624,0.742-14.846
			c0.148-0.224,0.444-5.42,0.742-11.508c0.223-6.162,0.594-11.656,0.743-12.249c0.147-0.595,0.52-5.79,0.816-11.507
			c0.222-5.716,0.593-10.541,0.668-10.765c0.148-0.222,0.444-4.752,0.668-10.022c0.297-5.345,0.669-10.837,0.817-12.248
			c0.221-1.411,0.518-5.939,0.741-10.023c0.223-4.082,0.595-9.278,0.742-11.506c0.224-2.228,0.52-7.126,0.742-10.765
			c0.224-3.711,0.595-8.76,0.817-11.358c0.297-3.638,0.148-4.602-0.669-4.602C415.234,264.547,414.565,264.695,414.417,264.843"/>
		<path fill-rule="evenodd" clip-rule="evenodd" fill="#FF3366" d="M504.986,264.843c-0.147,0.149-4.974,0.446-10.689,0.741
			c-9.651,0.373-17.298,0.818-28.211,1.561c-2.449,0.148-5.196,0.298-6.086,0.372h-1.634l0.52,37.266
			c0.668,49.591,0.668,87.972-0.074,111.876c-0.371,10.838-0.743,19.821-0.815,20.044c-0.149,0.223-0.521,4.975-0.744,10.469
			c-0.223,5.493-0.668,11.951-0.89,14.327l-0.521,4.306l2.895-0.445c2.822-0.446,35.561-4.084,36.451-4.084
			c0.222,0,0.222-2.449-0.073-5.345c-0.447-5.346-0.817-11.209-1.857-33.629c-0.668-12.843-0.742-114.993-0.147-124.272
			c0.371-4.753,0.742-6.312,1.558-6.386c0.595-0.073,6.459-0.371,12.993-0.668c6.531-0.296,12.545-0.668,13.361-0.816
			c0.817-0.148,6.978-0.52,13.734-0.742c6.682-0.298,12.398-0.595,12.694-0.816c1.188-0.668,1.115-0.892,3.267,19.006
			c1.707,15.811,1.855,17.222,2.228,20.043c0.223,1.409,0.521,4.23,0.742,6.309c0.149,2.006,0.521,5.347,0.743,7.425l0.444,3.712
			l-9.13,8.982c-5.049,4.974-10.097,9.503-11.359,10.096c-3.043,1.56-23.088,7.944-26.354,8.391
			c-0.224,0.073-1.114,0.295-2.005,0.666l-1.633,0.521l2.228,6.087c2.228,5.939,4.084,8.76,11.433,16.927
			c2.004,2.228,4.825,5.419,6.236,7.053c1.41,1.56,4.38,4.898,6.682,7.35c8.239,8.908,18.41,20.119,21.306,23.385
			c1.56,1.781,5.419,6.013,8.537,9.278c3.043,3.267,7.423,7.944,9.648,10.395c2.229,2.45,7.944,8.462,12.771,13.436l8.76,8.984
			l6.46-2.005c3.562-1.114,8.908-2.746,11.876-3.638c4.976-1.56,5.347-1.781,4.456-2.896c-6.013-7.274-10.023-12.471-25.02-32.44
			c-14.4-19.08-23.68-32.368-29.991-42.761l-4.824-7.87l3.414-1.559c5.493-2.523,11.952-8.313,21.083-18.855
			c4.604-5.42,9.133-10.616,10.098-11.655c1.558-1.781,1.707-2.45,1.337-7.498c-0.446-6.459-3.417-27.393-7.574-53.078
			c-0.964-6.312-1.41-7.499-2.895-8.686c-0.966-0.745-5.048-4.233-9.204-7.87l-7.573-6.608l-9.428-0.891
			c-5.197-0.445-10.246-0.964-11.285-1.114c-1.038-0.222-4.528-0.519-7.721-0.815c-3.191-0.297-6.532-0.669-7.423-0.818
			C525.551,265.141,505.432,264.472,504.986,264.843"/>
		<path fill-rule="evenodd" clip-rule="evenodd" fill="#006699" d="M224.582,842.119c-2.58,0.229-4.043,0.5-4.429,0.924
			c-0.461,0.462-0.577,1.962-0.577,8.934c0,10.552,0.461,21.409,1.001,23.912c0.423,2.119,0.269,2.003,3.543,2.08
			c3.271,0.115,14.94-0.85,15.364-1.233c0.114-0.114,0.386-0.885,0.5-1.694l0.271-1.423h-5.006c-2.734,0-5.507-0.116-6.162-0.232
			c-1.541-0.307-1.926-1.423-2.232-6.315l-0.232-3.734l2.042-0.27c1.155-0.117,3.543-0.346,5.352-0.462
			c1.811-0.154,3.544-0.309,3.851-0.347c0.348-0.04,0.656-0.654,0.81-1.656c0.23-1.848,0.424-1.81-6.431-1.962
			c-2.733-0.077-4.812-0.27-5.121-0.54c-0.425-0.348-0.463-1.387-0.27-4.969c0.114-2.464,0.385-4.929,0.578-5.431
			c0.499-1.307,2.733-1.809,10.356-2.348c1.541-0.114,1.85-0.423,2.157-2.271l0.27-1.464l-5.892,0.076
			C231.09,841.772,226.699,841.963,224.582,842.119"/>
		<path fill-rule="evenodd" clip-rule="evenodd" fill="#006699" d="M510.54,841.963l-1.271,0.115l0.27,3.928
			c0.154,2.156,0.309,4.006,0.386,4.12c0.038,0.116,0.231,1.387,0.345,2.888c0.155,1.467,0.348,2.965,0.426,3.273
			c0.076,0.309,0.229,1.618,0.385,2.89c0.115,1.271,0.308,2.733,0.386,3.272c0.229,1.232,0.422,2.579,0.961,5.97
			c0.501,3.465,1.156,7.469,1.387,8.625c0.192,0.924,0.23,0.924,3.928,0.691c2.041-0.153,4.006-0.268,4.353-0.268
			c0.615,0,0.885-0.693,2.464-6.738c0.539-2.004,1.387-5.816,1.964-8.473c0.961-4.736,1.31-6.123,1.656-6.47
			c0.229-0.231,0.422-0.347,0.422-0.231c0,1.119,4.854,19.063,5.584,20.64l0.925,2.08l2.041-0.269
			c1.115-0.154,2.311-0.31,2.619-0.385c0.308-0.04,1.192-0.116,1.963-0.116l1.349-0.038l1.076-6.624
			c0.579-3.658,1.389-8.741,1.811-11.282c0.387-2.541,1.155-6.314,1.657-8.355c0.539-2.042,1.078-5.047,1.231-6.664l0.27-2.965
			l-2.271,0.27c-1.232,0.154-2.542,0.348-2.849,0.425c-0.31,0.038-0.964,0.114-1.388,0.114c-0.769,0.04-0.847,0.31-1.078,3.773
			c-0.152,2.08-0.346,4.469-0.424,5.314c-0.461,4.006-1.386,12.94-1.578,14.826c-0.191,2.041-1.155,4.006-1.888,3.928
			c-0.23-0.038-0.5-0.809-0.615-1.694c-1.387-9.28-3.273-18.869-4.16-21.18c-0.346-0.961-0.538-1.039-2.04-0.884
			c-5.198,0.614-4.89,0.499-5.313,2.04c-0.81,3.003-2.272,8.586-3.659,13.939c-1.964,7.702-2.271,8.664-3.004,8.779
			c-0.577,0.115-0.653-0.271-0.693-2.695c0-1.54-0.075-3.081-0.113-3.389c-0.117-0.578-0.386-5.853-0.849-16.173
			c-0.231-5.084-0.27-5.238-1.347-6.276C514.699,841.578,514.622,841.578,510.54,841.963"/>
		<path fill-rule="evenodd" clip-rule="evenodd" fill="#006699" d="M355.393,845.352c-4.004,0.885-5.66,2.118-7.316,5.545
			c-1.001,2.003-1.039,2.388-0.963,7.163c0.193,9.011,1.849,14.517,5.391,17.944c1.232,1.156,1.849,1.464,3.929,1.772
			c3.157,0.46,4.698,0.385,7.432-0.463c3.812-1.118,5.507-3.273,7.933-10.011c0.81-2.274,1.002-3.621,1.155-8.243
			c0.231-7.778-0.577-10.28-4.005-12.438C366.059,844.851,360.168,844.313,355.393,845.352 M363.095,850.358
			c3.157,0.386,4.005,2.389,3.658,8.78c-0.154,2.348-0.347,4.774-0.462,5.429c-0.616,3.12-1.811,7.355-2.157,7.701
			c-0.193,0.193-1.964,0.386-3.851,0.386c-3.928,0-4.16-0.153-5.853-3.656c-0.771-1.581-0.847-2.312-0.809-8.819v-7.048l1.81-1.731
			C357.434,849.511,356.779,849.587,363.095,850.358"/>
		<path fill-rule="evenodd" clip-rule="evenodd" fill="#006699" d="M449.929,844.968c-0.039,0.036-1.887,0.192-4.119,0.346
			c-2.234,0.154-4.198,0.347-4.391,0.461c-1.078,0.655-4.121,9.437-5.391,15.519c-1.155,5.393-3.004,16.213-2.812,16.404
			c0.077,0.078,1.155,0.193,2.466,0.271l2.348,0.154l1.041-3.427c0.962-3.158,1.115-3.428,1.885-3.197
			c1.311,0.464,4.814,0.501,7.702,0.155c1.464-0.192,2.734-0.27,2.811-0.233c0.04,0.078,0.27,1.389,0.501,2.966
			c0.23,1.58,0.462,2.89,0.54,2.966c0.076,0.078,1.309,0.191,2.733,0.23l2.618,0.077l0.154-4.042
			c0.154-4.353-0.462-8.241-2.618-16.366c-0.616-2.35-1.194-4.66-1.348-5.199c-0.115-0.539-0.655-2.388-1.194-4.119
			c-0.848-2.929-1.001-3.198-1.887-3.12C450.43,844.89,449.968,844.929,449.929,844.968 M448.466,851.399
			c0.501,1.656,1.386,5.544,2.156,9.395c0.731,3.735,0.654,6.353-0.192,6.47c-0.308,0.04-2.619,0.192-5.083,0.346l-4.505,0.271
			l0.154-0.886c0.076-0.5,0.23-2.427,0.384-4.313c0.231-3.118,1.464-8.971,2.466-11.474c0.308-0.81,0.692-1.041,1.849-1.157
			C447.734,849.898,448.042,850.012,448.466,851.399"/>
		<path fill-rule="evenodd" clip-rule="evenodd" fill="#006699" d="M582.513,845.197c-2.235,0.193-4.236,0.387-4.507,0.502
			c-0.269,0.076-0.848,0.963-1.27,1.925c-0.886,1.964-3.699,10.243-4.006,11.746c-0.078,0.539-0.425,2.156-0.731,3.658
			c-0.347,1.463-0.693,3.312-0.81,4.042c-0.113,0.731-0.461,3.004-0.809,5.006c-0.346,2.004-0.693,4.12-0.808,4.699
			c-0.155,1.001-0.078,1.078,1.27,1.116c0.81,0.037,1.927,0.077,2.504,0.116c1,0.115,1.078-0.039,2.08-3.312
			c1.039-3.352,1.077-3.428,2.041-3.119c1.231,0.386,4.813,0.386,8.048,0c1.31-0.156,2.388-0.156,2.424,0
			c0,0.153,0.079,0.577,0.117,0.885c0.076,0.309,0.231,1.541,0.386,2.735l0.268,2.155l2.004,0.271
			c1.116,0.113,2.427,0.23,2.927,0.23h0.886l-0.193-5.699c-0.153-5.237-0.309-6.238-2.156-13.362
			c-1.078-4.235-2.349-9.089-2.85-10.781C588.326,844.465,588.941,844.735,582.513,845.197 M584.783,851.36
			c0.386,1.231,1.463,5.736,1.81,7.587c0.115,0.538,0.271,1.077,0.348,1.192c0.077,0.153,0.269,1.347,0.423,2.734
			c0.116,1.349,0.309,2.541,0.348,2.657c0.229,0.424-0.463,1.655-1.003,1.732c-0.307,0.04-2.539,0.192-4.966,0.346l-4.467,0.271
			l0.345-4.16c0.27-3.695,1.54-9.934,2.581-12.591c0.31-0.886,0.576-1.002,2.271-1.002
			C584.282,850.126,584.398,850.206,584.783,851.36"/>
		<path fill-rule="evenodd" clip-rule="evenodd" fill="#006699" d="M711.32,845.276c-1.271,0.308-2.773,0.73-3.312,0.924
			c-1.657,0.655-3.736,3.08-4.621,5.429c-0.732,1.926-0.81,2.695-0.616,7.354c0.308,8.088,1.655,13.017,4.235,15.79
			c2.272,2.425,2.773,2.695,5.97,3.118c2.964,0.385,3.312,0.346,6.391-0.615c1.772-0.577,3.582-1.388,4.005-1.85
			c1.116-1.192,2.89-4.891,4.121-8.74c0.963-2.889,1.116-3.851,1.116-8.472c0.04-3.391-0.153-5.854-0.5-7.047
			c-0.692-2.426-2.85-4.545-5.507-5.43C719.908,844.813,714.285,844.583,711.32,845.276 M718.636,850.358
			c2.041,0.309,2.773,0.924,3.312,2.811c1.349,4.775-0.575,18.139-2.772,19.332c-0.422,0.192-1.963,0.346-3.465,0.31
			c-3.234-0.079-4.122-0.656-5.506-3.545c-1.041-2.119-1.194-3.812-1.079-12.32l0.077-3.776l1.733-1.731l1.771-1.734l2.387,0.232
			C716.402,850.049,718.021,850.243,718.636,850.358"/>
		<path fill-rule="evenodd" clip-rule="evenodd" fill="#006699" d="M266.093,845.545c-2.04,0.578-3.004,2.617-3.08,6.507
			c-0.076,4.198,0.424,7.24,1.311,7.932c0.769,0.579,4.388,2.39,9.048,4.507c3.235,1.464,3.196,1.425,3.542,5.583
			c0.192,1.926-0.231,2.311-3.85,3.544c-1.617,0.577-3.312,0.847-6.009,0.847l-3.772,0.076v1.002c0,0.538,0.231,1.348,0.539,1.733
			c0.502,0.692,1.079,0.77,6.471,0.77c3.464,0,6.776-0.192,8.047-0.502c1.849-0.425,2.232-0.691,2.927-1.924
			c1.54-2.733,2.656-9.087,2.002-11.36c-0.462-1.693-2.503-3.042-8.28-5.585c-6.276-2.732-5.891-2.424-5.659-4.773
			c0.501-4.507,0.654-4.582,7.393-4.507l4.39,0.04l0.463-1.734l0.424-1.731l-1.541-0.27
			C277.762,845.276,267.403,845.161,266.093,845.545"/>
		<path fill-rule="evenodd" clip-rule="evenodd" fill="#006699" d="M399.407,845.506l-2.695,0.192l0.038,5.005
			c0,2.736,0.039,10.167,0.077,16.442l0.077,11.439l1.078-0.156c1.04-0.152,3.928-0.384,11.244-0.807
			c2.234-0.154,4.158-0.347,4.312-0.5c0.154-0.118,0.387-0.887,0.5-1.696l0.232-1.424l-1.656-0.039
			c-0.924,0-2.003-0.077-2.388-0.153c-0.424-0.078-1.886-0.192-3.272-0.232c-4.043-0.153-4.275-0.229-4.082-1.655
			c0.077-0.654,0.269-4.313,0.385-8.125c0.154-3.813,0.309-7.547,0.385-8.279c0.077-0.731,0.27-2.657,0.386-4.236
			s0.309-3.619,0.423-4.541l0.23-1.657l-1.27,0.113C402.68,845.276,400.91,845.39,399.407,845.506"/>
		<path fill-rule="evenodd" clip-rule="evenodd" fill="#006699" d="M621.789,845.429c-4.159,0.192-3.851-0.308-3.58,5.97
			c0.153,3.002,0.27,10.357,0.27,16.288c0.038,9.432,0.115,10.858,0.614,10.742c0.31-0.037,2.735-0.229,5.353-0.384
			c2.657-0.154,5.122-0.31,5.507-0.386c0.387-0.077,1.734-0.191,3.005-0.229l2.27-0.078l0.348-1.578
			c0.194-0.887,0.309-1.618,0.309-1.656c-0.039-0.038-2.04-0.193-4.468-0.308c-2.425-0.154-4.696-0.347-5.005-0.386
			c-0.31-0.075-0.886-0.154-1.31-0.154c-0.655-0.039-0.692-0.347-0.463-5.506c0.386-8.202,0.617-12.593,0.81-14.75
			c0.499-5.736,0.694-7.354,0.847-7.624c0.116-0.152-0.385-0.229-1.115-0.193C624.483,845.276,622.945,845.352,621.789,845.429"/>
		<path fill-rule="evenodd" clip-rule="evenodd" fill="#006699" d="M664.417,845.352c-0.038,0.038-1.618,0.154-3.542,0.193
			c-5.085,0.153-4.889,0.076-4.66,2.617c0.117,1.195,0.309,6.237,0.463,11.206c0.114,4.969,0.307,9.357,0.386,9.743
			c0.037,0.385,0.153,2.426,0.191,4.544c0.039,2.465,0.23,3.927,0.5,4.042c0.233,0.078,2.504,0.193,5.044,0.271
			c7.011,0.192,10.977-0.616,12.941-2.58c2.965-2.966,4.351-7.855,4.812-16.79c0.27-5.044-0.038-6.699-1.771-9.318
			c-1.039-1.539-1.501-1.886-3.582-2.58c-3.427-1.116-6.469-1.616-8.702-1.539C665.418,845.238,664.495,845.314,664.417,845.352
			 M671.926,851.245c1.233,0.654,1.887,1.271,2.041,1.924c0.386,1.464,0.271,7.779-0.231,11.591c-0.346,2.965-1.27,7.24-1.578,7.472
			c-0.77,0.578-6.238,2.155-7.354,2.155h-1.464l0.115-12.051l0.117-12.017l2.694-0.192
			C669.231,849.898,669.309,849.935,671.926,851.245"/>
		<path fill-rule="evenodd" clip-rule="evenodd" fill="#006699" d="M759.184,845.314c-0.036,0.076-1.5,0.154-3.194,0.231
			c-1.694,0.076-3.272,0.153-3.467,0.229c-0.269,0.078-0.422,5.354-0.384,16.136v16.018l2.27-0.23
			c1.233-0.115,2.698-0.229,3.16-0.229c0.924,0,0.924,0,0.924-4.968v-4.968l1.194-0.423c1.964-0.694,2.463-0.541,3.851,1.192
			c2.077,2.656,7.894,9.28,8.857,10.168c0.846,0.768,1.079,0.808,2.771,0.345c1.002-0.229,1.926-0.578,2.04-0.692
			c0.116-0.115-0.692-1.388-1.847-2.849c-1.155-1.426-3.235-4.274-4.66-6.276l-2.54-3.699l2.54-2.463
			c1.385-1.387,2.619-2.852,2.774-3.235c0.151-0.384-0.041-2.966-0.464-5.736c-0.733-4.854-0.809-5.047-2.119-6.201
			c-1.925-1.731-1.809-1.694-6.431-1.964c-2.348-0.153-4.428-0.309-4.697-0.385C759.531,845.238,759.262,845.238,759.184,845.314
			 M766.733,852.323c0.154,1.463,0.346,3.428,0.462,4.39c0.231,1.81,0.231,1.81-1.733,3.351c-2.079,1.655-6.123,3.428-6.586,2.886
			c-0.191-0.153-0.423-3.118-0.577-6.545l-0.27-6.238l1.695-0.153c0.886-0.077,2.812-0.155,4.197-0.192l2.541-0.076L766.733,852.323
			z"/>
		<path fill-rule="evenodd" clip-rule="evenodd" fill="#006699" d="M311.647,845.931c-1.771,0.421-4.621,2.616-5.468,4.234
			c-0.309,0.655-0.924,2.771-1.348,4.699c-0.77,3.464-0.77,4.273-0.115,9.318c0.692,5.197,2.388,10.55,3.812,11.976
			c1.079,1.038,4.12,1.77,8.086,1.887c2.811,0.115,7.972-0.502,8.395-0.963c0.078-0.115,0.309-0.887,0.423-1.694l0.271-1.502
			l-3.004,0.309c-1.655,0.153-3.426,0.307-3.967,0.346c-1.386,0.117-4.273-0.885-5.273-1.848c-1.156-1.077-2.042-5.354-2.312-11.244
			c-0.309-5.931,0-7.934,1.462-9.55c1.541-1.772,3.543-2.271,8.742-2.079l4.273,0.115l0.578-1.54
			c0.348-0.809,0.463-1.656,0.308-1.811C325.55,845.622,314.96,845.161,311.647,845.931"/>
		<path fill-rule="evenodd" clip-rule="evenodd" fill="#006699" d="M814.251,845.699c-0.075,0.039-3.658,0.192-8.01,0.347
			c-4.351,0.114-7.933,0.231-7.933,0.231c-0.038,0-0.269,0.538-0.539,1.193c-0.385,0.886-0.425,2.772-0.269,7.395
			c0.269,6.507,0.614,13.477,0.847,16.442c0.077,0.961,0.153,2.927,0.153,4.351l0.04,2.618l2.426-0.269
			c1.309-0.116,2.502-0.348,2.655-0.501c0.117-0.116,0.385-3.005,0.503-6.393c0.152-3.39,0.308-6.2,0.346-6.238
			c0.039-0.038,2.041-0.269,4.466-0.501c2.427-0.23,4.853-0.462,5.393-0.538c0.807-0.078,1.001-0.386,1.193-1.619
			c0.154-0.807,0.191-1.578,0.076-1.692c-0.113-0.116-2.617-0.194-5.62-0.194h-5.469l-0.115-4.505l-0.117-4.505l1.194-0.617
			c0.615-0.307,1.271-0.577,1.425-0.577c0.309,0.039,2.964-0.27,5.314-0.615c2.812-0.423,3.156-0.577,3.812-1.964
			c0.347-0.732,0.54-1.464,0.423-1.579C816.216,845.738,814.443,845.545,814.251,845.699"/>
		<path fill="#FFCC33" d="M203.013,160.912l0.503-39.415l-0.503-0.93h21.818c1.021,0,1.642,0.445,1.861,1.334
			c3.182,8.796,4.774,14.754,4.774,17.871c0,0.623-0.084,1.118-0.251,1.489c-0.553,1.211-1.114,2.127-1.686,2.75
			c-0.351,0.236-0.853,0.421-1.508,0.555c-0.101,0.033-0.149,0.067-0.149,0.102c0.184,0.066,0.805,0.427,1.859,1.079
			c0.988,0.754,1.483,1.833,1.483,3.239l-2.514,11.524c-0.402,0.821-1.039,1.23-1.911,1.23h-22.948
			C203.271,161.741,202.995,161.463,203.013,160.912 M208.569,155.002c0,0.704,0.703,1.107,2.11,1.209
			c0.653,0.016,1.633,0.042,2.941,0.074c1.071,0.068,2.429,0.134,4.071,0.201h0.201c2.212,0,3.704-0.261,4.474-0.781
			c1.676-1.158,2.515-2.854,2.515-5.088c0-0.891-0.15-1.529-0.453-1.916c-0.368-0.47-2.739-1.125-7.113-1.965
			c-1.491-0.285-2.898-0.58-4.223-0.882c-0.653-0.151-0.98-0.581-0.98-1.289l0.226-2.577c0-0.556,0.461-0.867,1.383-0.936
			c1.174-0.233,2.597-0.494,4.274-0.779c1.424-0.218,2.849-0.436,4.272-0.654c1.876-0.501,2.814-1.332,2.814-2.487
			c-0.2-1.458-0.632-3.175-1.294-5.153c-0.662-1.976-1.361-3.568-2.099-4.776c-0.317-0.752-0.914-1.13-1.785-1.13
			c-1.021,0-2.137,0.1-3.342,0.301c-0.706,0.118-2.515,0.461-5.431,1.031c-0.888,0.05-1.534,0.588-1.936,1.611
			c-0.268,2.199-0.444,6.597-0.528,13.192c-0.017,1.829-0.033,4.665-0.049,8.509c0,1.076-0.009,1.965-0.027,2.671L208.569,155.002z"
			/>
		<path fill="#FFCC33" d="M248.453,138.739c0-1.489,0.075-3.619,0.226-6.383c0.117-2.146,0.242-3.854,0.377-5.128
			c0.268-2.58,0.603-4.188,1.004-4.825c0.521-0.821,3.73-1.332,9.629-1.533c1.961-0.066,4.416-0.1,7.364-0.1h3.595
			c0.653,0,0.979,0.221,0.979,0.667c0,0.182-0.033,0.346-0.1,0.494l-0.98,2.275c0,0.76-0.522,1.163-1.562,1.212l-4.883,0.253
			c-1.846,0.136-3.466,0.345-4.858,0.632c-0.823,0.168-1.418,0.396-1.787,0.683c-0.42,0.235-0.874,0.615-1.359,1.139
			c-1.19,1.279-1.787,3.42-1.787,6.419c0,1.786,0.134,3.126,0.401,4.02c0.067,0.387,1.132,0.58,3.192,0.58
			c-0.083,0,0.486-0.016,1.71-0.051l1.834-0.049c1.225-0.034,1.694-0.052,1.409-0.052h1.634c0.101,0,0.837,0.034,2.212,0.101
			c0.719,0.035,1.081,0.363,1.081,0.99v2.791c-0.169,0.931-0.646,1.423-1.434,1.474c-2.799,0.166-5.138,0.458-7.013,0.875
			c-0.972,0.218-1.694,0.393-2.163,0.526c-1.123,0.333-1.783,0.65-1.985,0.95l-0.326,1.652c-0.1,0.5-0.151,1.026-0.151,1.576
			c0,4.138,3.896,6.208,11.688,6.208c0.436,0,1.692-0.05,3.771-0.15c0.336-0.018,0.57,0.349,0.703,1.099l0.202,3.032v0.163
			c0,0.74-0.344,1.109-1.03,1.109c-1.626,0.022-3.729,0.041-6.31,0.051l-4.801,0.2h-0.127c-0.771,0-2.821-0.292-6.151-0.879
			c-1.334-0.234-2.102-0.436-2.301-0.604c-0.284-0.233-0.543-1.44-0.776-3.619c-0.117-1.021-0.334-4.039-0.651-9.051l-0.426-6.586
			C248.469,140.381,248.453,139.661,248.453,138.739"/>
		<path fill="#FFCC33" d="M289.141,160.912l0.503-39.415l-0.503-0.93h21.818c1.022,0,1.643,0.444,1.86,1.334
			c3.184,8.797,4.776,14.754,4.776,17.871c0,0.606-0.085,1.102-0.252,1.488c-0.468,1.06-0.879,1.8-1.231,2.221
			c-0.452,0.655-1.106,1.017-1.96,1.084l-3.293,0.254l6.736,15.994c0,0.033,0.021,0.111,0.062,0.237
			c0.042,0.126,0.063,0.222,0.063,0.289c0,0.401-0.177,0.653-0.528,0.754l-3.091,1.658c-0.924,0-1.45-0.116-1.584-0.352
			c-0.604-1.055-1.501-2.787-2.689-5.197c-0.654-1.374-1.836-3.791-3.544-7.253l-2.313-4.619c-0.067-0.62-0.311-0.931-0.729-0.931
			c-0.083,0-0.149,0.017-0.2,0.051c-0.102,0.033-0.168,0.049-0.201,0.049l-3.871,0.355c-0.653-0.135-0.98-0.523-0.98-1.162v-0.128
			l0.202-2.576c0.05-0.556,0.518-0.867,1.406-0.936c0.588-0.116,1.491-0.275,2.715-0.478c0.77-0.117,2.146-0.336,4.123-0.654
			c0.503-0.083,1.533-0.309,3.092-0.678c1.121-0.268,1.685-0.972,1.685-2.111c-0.201-1.458-0.634-3.175-1.297-5.153
			c-0.66-1.976-1.36-3.568-2.098-4.775c-0.318-0.753-0.914-1.131-1.785-1.131c-1.021,0-2.135,0.1-3.343,0.301
			c-0.703,0.118-2.513,0.461-5.429,1.031c-0.888,0.05-1.534,0.587-1.937,1.609c-0.269,2.195-0.444,6.588-0.526,13.177
			c-0.019,1.659-0.034,4.492-0.052,8.499c-0.016,1.357-0.032,2.783-0.05,4.273l-0.102,6.1c0,0.452-0.226,0.678-0.678,0.678h-3.945
			C289.401,161.741,289.125,161.463,289.141,160.912"/>
		<path fill="#FFCC33" d="M334.582,138.699c0-1.488,0.074-3.611,0.226-6.369c0.117-2.142,0.242-3.846,0.377-5.116
			c0.269-2.574,0.604-4.179,1.005-4.814c0.52-0.819,3.729-1.329,9.628-1.53c1.96-0.067,4.416-0.1,7.365-0.1h3.594
			c0.653,0,0.98,0.223,0.98,0.668c0,0.181-0.034,0.346-0.101,0.495l-0.979,2.274c0,0.76-0.51,1.163-1.531,1.212
			c-6.291,0.337-10.241,1.128-11.848,2.368c-0.819,0.624-1.346,1.387-1.58,2.293c-0.386,0.388-0.687,1.765-0.903,4.133
			c-0.186,1.899-0.26,3.411-0.227,4.536l0.302,9.903c0.133,4.267,1.407,6.4,3.82,6.4c3.15,0.789,6.359,1.185,9.627,1.185
			c0.787,0,1.323-0.025,1.609-0.077c0.284-0.049,0.418-0.074,0.402-0.074c0.368,0,0.603,0.31,0.703,0.93l0.202,2.815
			c0.05,0.789-0.287,1.182-1.006,1.182c-0.537,0.066-1.743,0.176-3.62,0.326c-0.368,0.035-0.569,0.067-0.603,0.101
			c0.066,0.033,0.184,0.067,0.351,0.101c-0.05,1.458-0.72,3.805-2.01,7.037c-0.419,0.554-1.022,0.99-1.811,1.307
			c-0.57,0.169-1.373,0.253-2.412,0.253c-0.42,0-1.035-0.06-1.848-0.176c-0.813-0.117-1.438-0.176-1.873-0.176
			s-0.754-0.143-0.955-0.428c-0.219-0.235-0.344-0.437-0.377-0.604l-0.604-2.941c-0.067-0.05-0.102-0.227-0.102-0.528
			c0-0.368,0.294-0.553,0.881-0.553c1.741,0,2.975-0.082,3.696-0.251c0.754-0.319,1.196-1.284,1.332-2.895
			c-1.059,0-2.764-0.144-5.113-0.43c-2.688-0.352-4.248-0.687-4.686-1.007c-0.268-0.201-0.528-1.409-0.779-3.624
			c-0.103-0.957-0.32-3.979-0.656-9.064l-0.43-6.597C334.599,140.343,334.582,139.621,334.582,138.699"/>
		<path fill="#FFCC33" d="M371.198,160.912c0.472-6.987,1.109-14.127,1.914-21.416c1.105-10.105,2.27-16.146,3.494-18.124
			c0.216-0.435,0.861-0.669,1.935-0.704l5.076-0.15c0.872-0.016,2.38-0.033,4.523-0.049l3.972-0.051c0.703,0,1.08,0.394,1.132,1.181
			c0.262,1.175,0.708,2.711,1.332,4.607l1.454,4.576c2.626,8.275,3.942,15.346,3.948,21.215c0,2.375-0.167,5.293-0.503,8.754
			c0,0.527-0.242,0.789-0.729,0.789h-4.222c-0.503,0-0.748-0.28-0.729-0.841c0.032-1.461,0.048-3.839,0.048-7.135
			c0-0.866-0.441-1.291-1.329-1.274c-5.237,0.102-9.722,0.45-13.453,1.044c-0.52,0-0.962,0.604-1.33,1.81
			c-0.185,0.815-0.36,1.622-0.527,2.421c-0.117,0.628-0.326,1.657-0.626,3.083c-0.152,0.663-0.448,0.993-0.886,0.993l-3.862-0.051
			C371.375,161.589,371.164,161.363,371.198,160.912 M377.407,118.809l0.25-2.565c0-0.468,0.258-0.845,0.777-1.13l5.748-3.092
			l6.902-0.328c0.401,0.252,0.76,0.806,1.078,1.659c0,0.789-0.191,1.182-0.576,1.182c-2.712,0-6.016,1.031-9.914,3.093
			c-1.556,0.821-2.735,1.525-3.539,2.111c-0.033,0.101-0.126,0.15-0.274,0.15C377.556,119.889,377.407,119.529,377.407,118.809
			 M378.535,146.492c0,0.681,0.31,1.014,0.93,0.996c3.53-0.083,7.695-0.325,12.499-0.728c0.719-0.067,1.078-0.46,1.078-1.181
			c-0.428-2.126-1.703-6.483-3.827-13.07c-0.741-2.396-1.219-3.872-1.427-4.426c-0.367-0.806-0.761-1.206-1.179-1.206
			c-2.49,0-3.987,0.783-4.488,2.349L378.535,146.492z"/>
		<path fill="#FFCC33" d="M417.442,160.912l0.502-39.415l-0.502-0.93h21.818c1.021,0,1.642,0.444,1.859,1.334
			c3.184,8.797,4.777,14.754,4.777,17.871c0,0.606-0.085,1.102-0.252,1.488c-0.47,1.06-0.881,1.8-1.232,2.221
			c-0.452,0.655-1.105,1.017-1.962,1.084l-3.291,0.254l6.737,15.994c0,0.033,0.021,0.111,0.061,0.237
			c0.043,0.126,0.063,0.222,0.063,0.289c0,0.401-0.176,0.653-0.527,0.754l-3.092,1.658c-0.923,0-1.45-0.116-1.584-0.352
			c-0.604-1.055-1.5-2.787-2.688-5.197c-0.654-1.374-1.835-3.791-3.544-7.253l-2.313-4.619c-0.067-0.62-0.31-0.931-0.728-0.931
			c-0.085,0-0.151,0.017-0.202,0.051c-0.101,0.033-0.167,0.049-0.201,0.049l-3.872,0.355c-0.652-0.135-0.979-0.523-0.979-1.162
			v-0.128l0.201-2.576c0.051-0.556,0.518-0.867,1.406-0.936c0.587-0.116,1.492-0.275,2.716-0.478
			c0.77-0.117,2.145-0.336,4.121-0.654c0.504-0.083,1.534-0.309,3.092-0.678c1.123-0.268,1.685-0.972,1.685-2.111
			c-0.201-1.458-0.632-3.175-1.294-5.153c-0.662-1.976-1.362-3.568-2.1-4.775c-0.317-0.753-0.914-1.131-1.784-1.131
			c-1.022,0-2.137,0.1-3.344,0.301c-0.704,0.118-2.513,0.461-5.429,1.031c-0.89,0.05-1.533,0.587-1.936,1.609
			c-0.27,2.195-0.444,6.588-0.527,13.177c-0.018,1.659-0.034,4.492-0.051,8.499c-0.017,1.357-0.033,2.783-0.051,4.273l-0.1,6.1
			c0,0.452-0.227,0.678-0.679,0.678h-3.946C417.703,161.741,417.425,161.463,417.442,160.912"/>
		<path fill="#FFCC33" d="M463.762,159.629l0.151-36.698c0-0.269,0.263-0.562,0.79-0.881c1.274-0.787,2.566-1.182,3.875-1.182
			c0.979,0,1.469,0.446,1.469,1.333c0,0.285-0.102,4.44-0.303,12.467l-0.125,9.93c-0.034,1.607-0.092,4.44-0.177,8.495l-0.151,6.536
			c-0.017,1.256-0.398,1.894-1.146,1.91l-3.392,0.101h-0.025c-0.391,0-0.663-0.252-0.815-0.755
			C463.812,160.551,463.762,160.131,463.762,159.629"/>
		<path fill="#FFCC33" d="M488.162,124.741c-0.033-1.291,1.278-2.447,3.936-3.47c5.564-0.535,11.214-0.805,16.945-0.805
			c1.844,0,4.189,0.479,7.038,1.435c0.134,0.065,0.378,0.233,0.729,0.502c0.302,0.318,0.611,0.771,0.931,1.356
			c0.269,0.62,0.402,1.409,0.402,2.363v21.969l-0.979,12.115c-0.052,0.57-0.186,0.914-0.404,1.031
			c-0.3,0.168-0.711,0.252-1.229,0.252h-6.963c-2.313-0.033-5.246-0.051-8.8-0.051h-6.886c-0.74,0-1.296-0.292-1.666-0.881
			c-0.589-0.937-0.883-1.968-0.883-3.092l-1.793-20.284L488.162,124.741z M494.824,135.321c0,0.39,0.075,0.848,0.226,1.373
			l2.363,15.026c0.251,0.814,0.595,1.271,1.031,1.373l10.129,2.188c0.335,0,0.721-0.109,1.156-0.331
			c0.504-0.237,0.754-0.508,0.754-0.813l2.011-11.822l-1.031-12.612c-2.06-2.017-3.912-3.025-5.554-3.025
			c-2.781,0-5.305,0.508-7.566,1.525C495.996,130.982,494.824,133.355,494.824,135.321"/>
		<path fill="#FFCC33" d="M563.357,138.739c0-1.489,0.075-3.619,0.227-6.383c0.117-2.146,0.242-3.854,0.378-5.128
			c0.268-2.58,0.603-4.188,1.005-4.825c0.52-0.821,3.728-1.332,9.627-1.533c1.961-0.066,4.415-0.1,7.366-0.1h3.593
			c0.655,0,0.981,0.221,0.981,0.667c0,0.182-0.035,0.346-0.103,0.494l-0.981,2.275c0,0.76-0.52,1.163-1.562,1.212l-4.883,0.253
			c-1.847,0.136-3.465,0.345-4.857,0.632c-0.822,0.168-1.418,0.396-1.788,0.683c-0.42,0.235-0.872,0.615-1.358,1.139
			c-1.193,1.279-1.787,3.42-1.787,6.419c0,1.786,0.134,3.126,0.401,4.02c0.068,0.387,1.132,0.58,3.192,0.58
			c-0.084,0,0.485-0.016,1.709-0.051l1.836-0.049c1.222-0.034,1.691-0.052,1.407-0.052h1.633c0.101,0,0.839,0.034,2.214,0.101
			c0.719,0.035,1.079,0.363,1.079,0.99v2.791c-0.168,0.931-0.645,1.423-1.433,1.474c-2.798,0.166-5.135,0.458-7.014,0.875
			c-0.971,0.218-1.692,0.393-2.161,0.526c-1.122,0.333-1.785,0.65-1.984,0.95l-0.327,1.652c-0.102,0.5-0.151,1.026-0.151,1.576
			c0,4.138,3.896,6.208,11.688,6.208c0.438,0,1.693-0.05,3.771-0.15c0.335-0.018,0.569,0.349,0.703,1.099l0.201,3.032v0.163
			c0,0.74-0.344,1.109-1.029,1.109c-1.626,0.022-3.729,0.041-6.31,0.051l-4.801,0.2h-0.125c-0.772,0-2.823-0.292-6.153-0.879
			c-1.334-0.234-2.102-0.436-2.301-0.604c-0.285-0.233-0.543-1.44-0.776-3.619c-0.117-1.021-0.333-4.039-0.652-9.051l-0.426-6.586
			C563.374,140.381,563.357,139.661,563.357,138.739"/>
		<path fill="#FFCC33" d="M203.806,237.484c0-0.283,0.051-0.54,0.154-0.771l1.497-3.554c0-0.335,0.191-0.734,0.576-1.198
			c0.281-0.411,0.883-0.644,1.806-0.693c9.958-0.542,16.539-1.791,19.74-3.748c1.459-0.9,2.38-2.034,2.766-3.398
			c0.229-0.181,0.562-1.262,0.998-3.244c0.513-2.317,0.768-5.009,0.768-8.073c0-0.644-0.013-1.3-0.037-1.97l-0.501-15.179
			c-0.051-1.905-0.411-3.966-1.076-6.181c-0.719-2.42-2.296-3.631-4.731-3.631c-1.846-0.463-3.577-0.81-5.191-1.042
			c-3.59-0.359-7.423-0.538-11.498-0.538h-2.539h-0.192h-0.346c-0.668,0.153-1.038-0.243-1.115-1.192l-0.309-4.309
			c-0.051-0.587,0.051-1.063,0.309-1.423c0.153-0.281,0.576-0.422,1.269-0.422c1.923-0.23,5.333-0.437,10.229-0.616l8.731-0.308
			h0.192c1.332,0,4.503,0.45,9.509,1.346c2.009,0.359,3.168,0.666,3.477,0.921c0.413,0.23,0.76,1.521,1.043,3.871
			c0.231,1.992,0.489,5.097,0.771,9.312l1.044,16.173c0.051,0.792,0.076,1.892,0.076,3.296c0,14.033-0.806,22.388-2.421,25.065
			c-0.77,1.288-6.104,2.086-16,2.395c-3.282,0.104-7.268,0.154-11.961,0.154h-5.536
			C204.306,238.527,203.806,238.179,203.806,237.484"/>
		<path fill="#FFCC33" d="M269.406,204.64c1.692-15.457,3.474-24.698,5.346-27.723c0.333-0.667,1.32-1.025,2.96-1.078l7.77-0.229
			c1.332-0.024,3.642-0.052,6.923-0.078l6.077-0.076c1.077,0,1.653,0.58,1.73,1.737c0.403,1.815,1.083,4.188,2.041,7.119
			l2.223,7.002c4.017,12.661,6.032,23.479,6.041,32.457c0,3.635-0.257,8.1-0.769,13.395c0,0.806-0.371,1.208-1.114,1.208h-6.461
			c-0.77,0-1.142-0.429-1.116-1.287c0.052-2.234,0.077-5.874,0.077-10.917c0-1.299-0.654-1.949-1.958-1.949h-0.077
			c-8.014,0.156-14.876,0.689-20.584,1.6c-0.793,0-1.471,0.922-2.035,2.768c-0.28,1.248-0.551,2.482-0.807,3.702
			c-0.179,0.962-0.499,2.534-0.96,4.717c-0.232,1.015-0.684,1.521-1.353,1.521l-5.91-0.08c-0.645,0-0.968-0.298-0.968-0.896
			C266.482,233.298,267.457,222.326,269.406,204.64 M277.709,215.351c0,1.016,0.448,1.524,1.345,1.524h0.076
			c5.402-0.13,11.776-0.5,19.124-1.114c1.101-0.104,1.65-0.705,1.65-1.807c-0.654-3.253-2.607-9.919-5.855-19.998
			c-1.136-3.667-1.863-5.925-2.184-6.771c-0.563-1.232-1.164-1.847-1.803-1.847c-3.812,0-6.102,1.199-6.867,3.596L277.709,215.351z"
			/>
		<path fill="#FFCC33" d="M337.236,237.413l0.771-60.303l-0.771-1.423h33.381c1.565,0,2.514,0.68,2.848,2.037
			c4.869,13.462,7.308,22.575,7.308,27.345c0,0.927-0.129,1.687-0.386,2.277c-0.718,1.622-1.347,2.754-1.885,3.397
			c-0.692,1.004-1.691,1.558-2.999,1.659l-5.038,0.388l10.308,24.471c0,0.051,0.031,0.172,0.094,0.363
			c0.064,0.193,0.098,0.34,0.098,0.443c0,0.613-0.269,0.997-0.807,1.152l-4.731,2.537c-1.41,0-2.219-0.18-2.423-0.537
			c-0.923-1.614-2.295-4.265-4.115-7.953c-1-2.1-2.808-5.799-5.423-11.098l-3.537-7.064c-0.103-0.949-0.476-1.425-1.116-1.425
			c-0.128,0-0.23,0.025-0.309,0.077c-0.152,0.052-0.256,0.077-0.306,0.077l-5.924,0.54c-0.999-0.205-1.499-0.798-1.499-1.777v-0.194
			l0.308-3.943c0.076-0.85,0.794-1.326,2.153-1.43c0.897-0.179,2.281-0.424,4.153-0.729c1.179-0.18,3.281-0.514,6.307-1.001
			c0.769-0.128,2.347-0.474,4.731-1.038c1.717-0.409,2.576-1.487,2.576-3.23c-0.308-2.231-0.969-4.858-1.979-7.883
			c-1.014-3.026-2.085-5.462-3.213-7.309c-0.487-1.153-1.396-1.73-2.73-1.73c-1.563,0-3.269,0.154-5.114,0.462
			c-1.078,0.179-3.846,0.706-8.308,1.577c-1.36,0.076-2.346,0.897-2.961,2.462c-0.411,3.36-0.68,10.08-0.808,20.159
			c-0.025,2.539-0.052,6.874-0.077,13.003c-0.025,2.079-0.05,4.259-0.076,6.541l-0.154,9.332c0,0.691-0.346,1.036-1.038,1.036
			h-6.039C337.634,238.681,337.211,238.257,337.236,237.413"/>
		<path fill="#FFCC33" d="M406.836,175.599c0-0.146,0.358-0.221,1.077-0.221h0.347l32.92,1.23c0.282,0.049,0.604,0.12,0.961,0.216
			c0.975,0.524,1.781,1.849,2.423,3.972c0.281,1.05,0.705,2.66,1.27,4.831c0.641,2.355,1.871,6.938,3.692,13.749
			c0.076,0.284,0.192,0.582,0.346,0.894c0.102,0.414,0.154,0.945,0.154,1.592c0,0.519-0.103,0.996-0.308,1.437
			c-0.334,4.066-1.884,15.097-4.654,33.093c0,1.424-0.692,2.136-2.077,2.136h-33.15c-1.282,0-1.91-0.682-1.885-2.042l1.347-57.943
			l-1.654-1.986C407.105,176.114,406.836,175.796,406.836,175.599 M415.682,228.349c-0.026,0.649,0.102,1.207,0.384,1.673
			c0.257,0.312,0.756,0.467,1.5,0.467h0.155c6.28-0.268,11.716-0.756,16.306-1.461c1.23,0,2.18-0.783,2.846-2.35
			c0.231-1.67,0.731-5.111,1.5-10.326l2.578-17.606l-4.423-11.597c-0.154-0.411-0.334-0.706-0.54-0.886
			c-0.205-0.103-0.358-0.155-0.461-0.155l-16.537-2.308c-0.309,0-0.552,0.079-0.73,0.234c-0.052,0.077-0.104,0.506-0.154,1.284
			L415.682,228.349z"/>
		<path fill="#FFCC33" d="M476.552,235.451l0.229-56.148c0-0.411,0.403-0.858,1.21-1.347c1.951-1.205,3.928-1.809,5.928-1.809
			c1.499,0,2.247,0.68,2.247,2.04c0,0.436-0.154,6.793-0.461,19.074l-0.192,15.192c-0.053,2.46-0.143,6.793-0.27,12.998
			l-0.231,9.999c-0.026,1.923-0.61,2.897-1.755,2.923l-5.187,0.154h-0.04c-0.599,0-1.014-0.386-1.249-1.154
			C476.629,236.861,476.552,236.219,476.552,235.451"/>
		<path fill="#FFCC33" d="M511.462,236.95l0.545-2.714l10.8-53.819c0.553-1.769,1.339-2.666,2.365-2.692l14.295-0.23
			c0.449,0,0.863,0.24,1.239,0.716c0.249,0.557,0.448,0.993,0.599,1.311l6.155,44.111c0.37,2.264,1.101,3.396,2.187,3.396
			c0.831,0,1.587-0.974,2.274-2.923l7.191-44.111c0.663-1.743,1.471-2.627,2.416-2.654l14.55-0.229c0.716,0,1.369,0.63,1.958,1.891
			l9.152,52.226c0.256,0,0.68,1.013,1.269,3.036c0.206,0.717,0.308,1.409,0.308,2.075c0,1.511-0.422,2.267-1.269,2.267h-5.99
			c-1.126-0.179-2.062-1.154-2.803-2.922l-1.65-3.92l-7.325-37.346c-0.674-0.897-1.283-1.347-1.828-1.347
			c-0.518,0-1.024,0.37-1.516,1.109l-7.417,40.952c-0.408,2.266-1.406,3.396-2.991,3.396h-2.609h0.154l-5.561,0.076h-3.012h-1.247
			c-1.714-0.229-2.672-1.036-2.878-2.42l-6.516-43.652c-0.444-0.847-1.095-1.269-1.955-1.269c-0.522,0-1.02,0.342-1.486,1.026
			l-8.975,43.309c-0.411,2.004-1.408,3.006-2.993,3.006h-6.133C511.897,238.604,511.462,238.053,511.462,236.95"/>
		<path fill-rule="evenodd" clip-rule="evenodd" fill="#99CC33" d="M673.053,502.373c-0.187,0.185-6.232,0.557-13.393,0.93
			c-12.092,0.465-21.671,1.023-35.342,1.953c-3.07,0.185-6.513,0.371-7.628,0.466h-2.046l0.65,46.688
			c0.838,62.127,0.838,110.211-0.093,140.161c-0.463,13.577-0.932,24.832-1.021,25.109c-0.188,0.281-0.653,6.232-0.931,13.115
			c-0.278,6.882-0.838,14.975-1.116,17.95l-0.651,5.394l3.627-0.558c3.535-0.558,44.551-5.115,45.667-5.115
			c0.278,0,0.278-3.067-0.093-6.696c-0.559-6.696-1.023-14.043-2.324-42.133c-0.84-16.09-0.934-144.066-0.188-155.691
			c0.466-5.952,0.931-7.905,1.954-7.998c0.743-0.094,8.09-0.465,16.276-0.838c8.184-0.373,15.718-0.837,16.74-1.023
			c1.023-0.185,8.743-0.648,17.206-0.929c8.371-0.371,15.531-0.745,15.904-1.022c1.488-0.838,1.394-1.117,4.094,23.807
			c2.138,19.812,2.323,21.578,2.789,25.112c0.279,1.768,0.65,5.302,0.931,7.907c0.186,2.51,0.651,6.697,0.93,9.3l0.558,4.649
			l-11.439,11.254c-6.325,6.232-12.648,11.905-14.231,12.649c-3.812,1.955-28.925,9.952-33.016,10.511
			c-0.278,0.092-1.395,0.371-2.513,0.837l-2.045,0.651l2.79,7.625c2.79,7.441,5.114,10.975,14.321,21.206
			c2.514,2.791,6.046,6.789,7.814,8.837c1.766,1.951,5.487,6.136,8.37,9.206c10.323,11.162,23.065,25.206,26.691,29.297
			c1.955,2.232,6.791,7.533,10.696,11.626c3.814,4.092,9.302,9.951,12.092,13.021c2.788,3.068,9.951,10.604,15.997,16.833
			l10.975,11.254l8.092-2.511c4.464-1.396,11.16-3.44,14.882-4.558c6.229-1.953,6.694-2.233,5.581-3.626
			c-7.536-9.116-12.558-15.627-31.346-40.646c-18.042-23.901-29.668-40.55-37.574-53.57l-6.045-9.859l4.279-1.953
			c6.882-3.161,14.974-10.417,26.413-23.622c5.767-6.791,11.439-13.302,12.647-14.604c1.953-2.233,2.14-3.069,1.674-9.393
			c-0.557-8.093-4.276-34.319-9.485-66.5c-1.209-7.906-1.767-9.394-3.628-10.882c-1.208-0.931-6.323-5.301-11.531-9.858
			l-9.486-8.279l-11.812-1.114c-6.512-0.559-12.837-1.21-14.139-1.395c-1.3-0.279-5.674-0.651-9.674-1.023
			c-3.998-0.371-8.183-0.837-9.298-1.023C698.814,502.744,673.609,501.907,673.053,502.373"/>
		<path fill-rule="evenodd" clip-rule="evenodd" fill="#99CC33" d="M266.941,578.596c0,0-3.771,4.862,3.327,8.366
			c0,0,11.898,7.196,22.84,11.754c10.94,4.559,62.372,24.923,72.561,33.876c10.189,8.953,14.779,9.797,14.846,23.263
			c0.064,13.469-1.116,39.428-9.598,60.449c0,0-2.101,17.647-17.976,32.222c0,0-29.797,12.313-100.557,6.883
			c0,0-25.29,1.408-26.744-6.557c-1.456-7.968-1.844-21.969-1.844-21.969l8.644-4.511l46.034,11.342l23.683-10.214
			c0,0,25.037-4.314,28.588-14.24c3.551-9.927-1.84-41.062-1.84-41.062s-5.657-13.876-25.363-19.278
			c-19.706-5.405-75.062-33.342-76.572-40.926c-1.509-7.585-8.631-34.461-0.281-78.115c0,0,3.953-18.752,9.941-23.165
			c5.988-4.41,29.463-6.787,34.082-5.877c4.621,0.911,64.627,0.233,70.76,3.254c0,0,24.23,0.99,27.195,4.499
			c2.964,3.508-5.815,20.911-5.815,20.911s-73.989,1.971-76.146,2.347c-2.156,0.373-15.55-1.394-16.326,23.068L266.941,578.596z"/>
		<path fill-rule="evenodd" clip-rule="evenodd" fill="#99CC33" d="M464.39,502.983c-18.33,1.027-28.758,2.589-31.586,5.498
			c-3.383,3.162-4.556,13.773-6.207,63.142c-2.501,74.734-1.799,151.761,1.426,169.619c2.498,15.102,1.435,14.246,24.601,15.566
			c23.156,1.593,106.029-2.461,109.123-5.089c0.845-0.79,2.935-6.181,3.945-11.881l2.246-10.029l-35.457-1.185
			c-19.366-0.647-38.977-2.122-43.586-3.098c-10.837-2.547-13.301-10.547-14.324-45.261l-0.751-26.511l14.52-1.426
			c8.211-0.544,25.176-1.615,38.024-2.006c12.854-0.663,25.163-1.343,27.355-1.541c2.464-0.19,4.792-4.483,6.12-11.538
			c2.075-13.037,3.429-12.719-45.084-15.434c-19.348-1.193-34.032-3.051-36.149-5.032c-2.918-2.556-2.945-9.928-0.732-35.248
			c1.403-17.431,3.895-34.822,5.378-38.322c3.855-9.155,19.794-12.172,73.928-14.185c10.936-0.454,13.191-2.562,15.811-15.581
			l2.258-10.303l-41.75-0.849C510.566,502.071,479.427,502.396,464.39,502.983"/>
		<polygon fill="#FFCC33" points="196.34,787.367 453.395,783.371 849.541,800.673 277.078,812.094 		"/>
	</g>
</g>
</svg>
